<?xml version="1.0" encoding="utf-8"?>
<!-- Generator: Adobe Illustrator 25.1.0, SVG Export Plug-In . SVG Version: 6.00 Build 0)  -->
<svg version="1.1" id="Capa_1" xmlns="http://www.w3.org/2000/svg" xmlns:xlink="http://www.w3.org/1999/xlink" x="0px" y="0px"
	 viewBox="0 0 64 64.1" style="enable-background:new 0 0 64 64.1;" xml:space="preserve">
<style type="text/css">
	.st0{fill:#3FB9BE;}
</style>
<g>
	<path class="st0" d="M34.9,28.8H29c-0.6,0-1,0.4-1,1V45c0,0.6,0.4,1,1,1h5.9c0.6,0,1-0.4,1-1V29.8C35.9,29.2,35.5,28.8,34.9,28.8z
		 M33.9,44H30V30.8h3.9V44z M32,18c-2.2,0-3.9,1.8-3.9,3.9c0,2.2,1.8,3.9,3.9,3.9c2.2,0,3.9-1.8,3.9-3.9C35.9,19.8,34.2,18,32,18z
		 M32,23.9c-1.1,0-1.9-0.9-1.9-1.9c0-1.1,0.9-1.9,1.9-1.9c1.1,0,1.9,0.9,1.9,1.9C33.9,23.1,33.1,23.9,32,23.9L32,23.9z M46,9H18
		c-5,0-9,4-9,9v28c0,5,4,9,9,9h28c5,0,9-4,9-9V18C55,13,51,9,46,9z M53,46c0,3.9-3.1,7-7,7H18c-3.9,0-7-3.1-7-7V18c0-3.9,3.1-7,7-7
		h28c3.9,0,7,3.1,7,7V46z"/>
</g>
</svg>
