<?xml version="1.0" encoding="utf-8"?>
<!-- Generator: Adobe Illustrator 25.1.0, SVG Export Plug-In . SVG Version: 6.00 Build 0)  -->
<svg version="1.1" id="Capa_1" xmlns="http://www.w3.org/2000/svg" xmlns:xlink="http://www.w3.org/1999/xlink" x="0px" y="0px"
	 viewBox="0 0 100 102" style="enable-background:new 0 0 100 102;" xml:space="preserve">
<style type="text/css">
	.st0{fill:#3FB9BE;}
</style>
<path class="st0" d="M63.5,58.5c0.3,0,0.6-0.1,0.8-0.2c6.4-2.9,13.9-9.1,14.2-17.2c0-1.1-0.8-2-1.9-2.1c-1.1,0-2,0.8-2.1,1.9
	c0,0,0,0,0,0c-0.2,5.9-6.1,11.1-11.9,13.7c-1,0.5-1.5,1.6-1,2.6C62,58,62.7,58.5,63.5,58.5L63.5,58.5z"/>
<path class="st0" d="M81.5,75c-0.4,0-0.9,0-1.3,0.1l-4.4-14.3c8.6-6.6,13.7-16.9,13.7-27.7c0-1.1-0.9-2-2-2h-66c-1.1,0-2,0.9-2,2
	c0,2,0.2,4,0.5,6H9.5c-1.1,0-2,0.9-2,2s0.9,2,2,2H21c2.2,7.3,6.7,13.6,12.8,18.1l-8.2,33.4c-0.3,1.1,0.4,2.2,1.5,2.4
	c1.1,0.3,2.2-0.4,2.4-1.5c0,0,0,0,0,0l1.8-7.5h39.4c1.1,6,6.8,9.9,12.8,8.8S93.4,90,92.3,84C91.3,78.8,86.8,75,81.5,75z M23.6,35
	h61.9c-1.1,17.1-15.9,30-32.9,28.9C37,62.9,24.6,50.5,23.6,35z M37.3,63.4c10.9,6.2,24.3,6.1,35.1-0.4l4.1,13.2
	c-3,1.6-5.1,4.4-5.7,7.7H32.2L37.3,63.4z M81.5,93c-3.9,0-7-3.1-7-7s3.1-7,7-7s7,3.1,7,7C88.5,89.9,85.4,93,81.5,93z"/>
<path class="st0" d="M71,15.2c1,3,1.4,5.1,0.1,6.4c-0.8,0.8-0.8,2,0,2.8c0.8,0.8,2,0.8,2.8,0c3.3-3.3,1.7-8,0.9-10.5l-0.5-1.5
	c-1-2.9-1.5-4.9-0.4-6c0.8-0.8,0.8-2,0-2.8c-0.8-0.8-2-0.8-2.8,0c-3,3-1.6,7.1-0.6,10.1L71,15.2z"/>
<path class="st0" d="M53,15.2c1,3,1.4,5.1,0.1,6.4c-0.8,0.8-0.8,2,0,2.8c0.8,0.8,2,0.8,2.8,0c0,0,0,0,0,0c3.3-3.3,1.7-8,0.9-10.5
	l-0.5-1.5c-1-2.9-1.5-4.9-0.4-6c0.8-0.8,0.8-2,0-2.8c-0.8-0.8-2-0.8-2.8,0c-3,3-1.6,7.1-0.6,10.1L53,15.2z"/>
<path class="st0" d="M34.7,15.6c1,2.9,1.5,4.9,0.4,6c-0.8,0.8-0.8,2,0,2.8c0.8,0.8,2,0.8,2.8,0c0,0,0,0,0,0c3-3,1.6-7.1,0.6-10.1
	L38,12.8c-1-3-1.4-5.1-0.1-6.4c0.8-0.8,0.8-2,0-2.8c-0.8-0.8-2-0.8-2.8,0c-3.3,3.3-1.7,8-0.9,10.5L34.7,15.6z"/>
</svg>
