<?xml version="1.0" encoding="utf-8"?>
<!-- Generator: Adobe Illustrator 25.1.0, SVG Export Plug-In . SVG Version: 6.00 Build 0)  -->
<svg version="1.1"
	 id="Capa_1" xmlns:cc="http://creativecommons.org/ns#" xmlns:dc="http://purl.org/dc/elements/1.1/" xmlns:inkscape="http://www.inkscape.org/namespaces/inkscape" xmlns:rdf="http://www.w3.org/1999/02/22-rdf-syntax-ns#" xmlns:sodipodi="http://sodipodi.sourceforge.net/DTD/sodipodi-0.dtd" xmlns:svg="http://www.w3.org/2000/svg"
	 xmlns="http://www.w3.org/2000/svg" xmlns:xlink="http://www.w3.org/1999/xlink" x="0px" y="0px" viewBox="0 0 100 87.5"
	 style="enable-background:new 0 0 100 87.5;" xml:space="preserve">
<style type="text/css">
	.st0{fill:#3FB9BE;}
</style>
<path class="st0" d="M12.1,9.4C8.8,9.4,6,12.2,6,15.6v55.8c0,3.4,2.8,6.1,6.1,6.1h55.8c3.4,0,6.1-2.8,6.1-6.1v-18l19.4-19.4
	c0.8-0.8,0.8-2,0-2.8L84.3,22c-0.4-0.4-1-0.7-1.6-0.6c-0.5,0.1-0.9,0.3-1.2,0.6L74,29.6v-14c0-3.4-2.8-6.1-6.1-6.1H12.1z M12.1,13.4
	h55.8c1.2,0,2.1,0.9,2.1,2.1v18L52.6,51c-0.4,0.4-0.6,0.9-0.6,1.4v9c0,1.1,0.9,2,2,2h9c0.5,0,1-0.2,1.4-0.6l5.6-5.6v14.1
	c0,1.2-0.9,2.1-2.1,2.1H12.1c-1.2,0-2.1-0.9-2.1-2.1V15.6C10,14.3,10.9,13.4,12.1,13.4z M19.8,23.4c-1.1,0.1-2,1-1.9,2.1
	c0.1,1.1,1,2,2.1,1.9h40c1.1,0,2-0.9,2-2c0-1.1-0.9-2-2-2c0,0,0,0-0.1,0H20C19.9,23.4,19.9,23.4,19.8,23.4z M82.9,26.3l6.2,6.2
	l-3.7,3.7l-6.2-6.2L82.9,26.3z M76.5,32.7l6.2,6.2L62.2,59.4H56v-6.2L76.5,32.7z M19.8,35.4c-1.1,0.1-2,1-1.9,2.1s1,2,2.1,1.9h40
	c1.1,0,2-0.9,2-2c0-1.1-0.9-2-2-2c0,0,0,0-0.1,0H20C19.9,35.4,19.9,35.4,19.8,35.4z M19.8,47.4c-1.1,0.1-2,1-1.9,2.1s1,2,2.1,1.9
	h26.2c1.1,0,2-0.9,2-2c0-1.1-0.9-2-2-2c0,0,0,0-0.1,0H20C19.9,47.4,19.9,47.4,19.8,47.4z M19.8,59.4c-1.1,0.1-2,1-1.9,2.1
	s1,2,2.1,1.9h26c1.1,0,2-0.9,2-2c0-1.1-0.9-2-2-2c0,0,0,0-0.1,0H20C19.9,59.4,19.9,59.4,19.8,59.4z"/>
</svg>
