<?xml version="1.0" encoding="utf-8"?>
<!-- Generator: Adobe Illustrator 25.1.0, SVG Export Plug-In . SVG Version: 6.00 Build 0)  -->
<svg version="1.1" id="Capa_1" xmlns="http://www.w3.org/2000/svg" xmlns:xlink="http://www.w3.org/1999/xlink" x="0px" y="0px"
	 viewBox="0 0 64 64.3" style="enable-background:new 0 0 64 64.3;" xml:space="preserve">
<style type="text/css">
	.st0{fill:#3FB9BE;}
</style>
<g>
	<path class="st0" d="M51,8h-1V7c0-2.8-2.2-5-5-5H13c-2.8,0-5,2.2-5,5v44c0,2.8,2.2,5,5,5h1v1c0,2.8,2.2,5,5,5h32c2.8,0,5-2.2,5-5
		V13C56,10.2,53.8,8,51,8z M42,4v4.6l-1.3-1.3c-0.4-0.4-1-0.4-1.4,0L38,8.6V4H42z M10,51V7c0-1.7,1.3-3,3-3h23v7c0,0.6,0.4,1,1,1
		c0.3,0,0.5-0.1,0.7-0.3L40,9.4l2.3,2.3c0.4,0.4,1,0.4,1.4,0c0.2-0.2,0.3-0.4,0.3-0.7V4h1c1.7,0,3,1.3,3,3v44c0,1.7-1.3,3-3,3H13
		C11.3,54,10,52.7,10,51z M54,57c0,1.7-1.3,3-3,3H19c-1.7,0-3-1.3-3-3v-1h29c2.8,0,5-2.2,5-5V10h1c1.7,0,3,1.3,3,3V57z"/>
	<path class="st0" d="M23.9,11.7C23.8,11.3,23.4,11,23,11h-8c-0.6,0-1,0.4-1,1v8c0,0.6,0.4,1,1,1h8c0.6,0,1-0.4,1-1v-5.6l2.7-2.7
		l-1.4-1.4L23.9,11.7z M22,19h-6v-6h6v0.6l-2,2l-1.3-1.3l-1.4,1.4l2,2c0.4,0.4,1,0.4,1.4,0l1.3-1.3V19z"/>
	<path class="st0" d="M25.3,24.3l-1.4,1.4C23.8,25.3,23.4,25,23,25h-8c-0.6,0-1,0.4-1,1v8c0,0.6,0.4,1,1,1h8c0.6,0,1-0.4,1-1v-5.6
		l2.7-2.7L25.3,24.3z M22,33h-6v-6h6v0.6l-2,2l-1.3-1.3l-1.4,1.4l2,2c0.4,0.4,1,0.4,1.4,0l1.3-1.3V33z"/>
	<path class="st0" d="M23,38h-8c-0.6,0-1,0.4-1,1v8c0,0.6,0.4,1,1,1h8c0.6,0,1-0.4,1-1v-8C24,38.4,23.6,38,23,38z M22,46h-6v-6h6V46
		z"/>
	<rect x="28" y="17" class="st0" width="10" height="2"/>
	<rect x="28" y="13" class="st0" width="6" height="2"/>
	<rect x="28" y="31" class="st0" width="10" height="2"/>
	<rect x="28" y="27" class="st0" width="6" height="2"/>
	<rect x="28" y="44" class="st0" width="10" height="2"/>
	<rect x="28" y="40" class="st0" width="6" height="2"/>
	<rect x="36" y="40" class="st0" width="2" height="2"/>
</g>
</svg>
