<?xml version="1.0" encoding="utf-8"?>
<!-- Generator: Adobe Illustrator 25.1.0, SVG Export Plug-In . SVG Version: 6.00 Build 0)  -->
<svg version="1.1" id="Capa_1" xmlns:serif="http://www.serif.com/"
	 xmlns="http://www.w3.org/2000/svg" xmlns:xlink="http://www.w3.org/1999/xlink" x="0px" y="0px" viewBox="0 0 64 63"
	 style="enable-background:new 0 0 64 63;" xml:space="preserve">
<style type="text/css">
	.st0{fill-rule:evenodd;clip-rule:evenodd;fill:#3FB9BE;}
</style>
<g transform="matrix(1,0,0,1,-296,-296)">
	<g>
		<path class="st0" d="M325.8,311l21-5.6c0.5-0.1,1.1,0.2,1.2,0.7l1.3,4.9h2.7c0.6,0,1,0.4,1,1v12.7l3.3,12.3
			c0.1,0.5-0.2,1.1-0.7,1.2l-2.6,0.7v5.1c0,0.6-0.4,1-1,1h-21.8l-21,5.6c-0.5,0.1-1.1-0.2-1.2-0.7l-1.3-4.9H304c-0.6,0-1-0.4-1-1
			v-12.7l-3.3-12.3c-0.1-0.5,0.2-1.1,0.7-1.2l2.6-0.7V312c0-0.6,0.4-1,1-1H325.8z M308.7,345l0.9,3.4l12.8-3.4H308.7z M305,332.4
			V343h30.6L315,322.4L305,332.4z M327.4,332l11,11H351v-10.6l-12-12L327.4,332z M353,336.8l1.1-0.3l-1.1-4.1V336.8z M351,329.6V313
			h-46v16.6l9.3-9.3c0.4-0.4,1-0.4,1.4,0l10.3,10.3l12.3-12.3c0.4-0.4,1-0.4,1.4,0L351,329.6z M301.9,319.5l1.1,4.1v-4.4
			L301.9,319.5z M325,317c-1.7,0-3,1.3-3,3s1.3,3,3,3s3-1.3,3-3S326.7,317,325,317z M325,319c0.6,0,1,0.4,1,1s-0.4,1-1,1s-1-0.4-1-1
			S324.4,319,325,319z M333.5,311h13.8l-0.9-3.4L333.5,311z"/>
	</g>
</g>
</svg>
