<?xml version="1.0" encoding="utf-8"?>
<!-- Generator: Adobe Illustrator 25.1.0, SVG Export Plug-In . SVG Version: 6.00 Build 0)  -->
<svg version="1.1" id="Capa_1" xmlns="http://www.w3.org/2000/svg" xmlns:xlink="http://www.w3.org/1999/xlink" x="0px" y="0px"
	 viewBox="0 0 25 23.3" style="enable-background:new 0 0 25 23.3;" xml:space="preserve">
<style type="text/css">
	.st0{fill:#3FB9BE;}
</style>
<g>
	<path class="st0" d="M22.8,12.1l-10-9c-0.2-0.2-0.5-0.2-0.7,0l-10,9c-0.2,0.2-0.2,0.5,0,0.7C2.2,12.9,2.4,13,2.5,13H5v6.5
		C5,19.7,5.2,20,5.5,20h5c0.3,0,0.5-0.2,0.5-0.5V15h3v4.5c0,0.3,0.2,0.5,0.5,0.5h5c0.3,0,0.5-0.2,0.5-0.5V13h2.5
		c0.3,0,0.5-0.2,0.5-0.5C23,12.3,22.9,12.2,22.8,12.1z M19.5,12c-0.3,0-0.5,0.2-0.5,0.5V19h-4v-4.5c0-0.3-0.2-0.5-0.5-0.5h-4
		c-0.3,0-0.5,0.2-0.5,0.5V19H6v-6.5C6,12.2,5.8,12,5.5,12H3.8l8.7-7.8l8.7,7.8H19.5z"/>
</g>
</svg>
