<?xml version="1.0" encoding="utf-8"?>
<!-- Generator: Adobe Illustrator 25.1.0, SVG Export Plug-In . SVG Version: 6.00 Build 0)  -->
<svg version="1.1" id="Capa_1" xmlns="http://www.w3.org/2000/svg" xmlns:xlink="http://www.w3.org/1999/xlink" x="0px" y="0px"
	 viewBox="0 0 25 24.8" style="enable-background:new 0 0 25 24.8;" xml:space="preserve">
<style type="text/css">
	.st0{fill:#3FB9BE;}
</style>
<g>
	<path class="st0" d="M12.5,3.1c-4,0-7.3,3.3-7.3,7.3c0,4.3,4.6,11.4,7.3,11.4s7.3-7.2,7.3-11.4C19.8,6.4,16.5,3.2,12.5,3.1z
		 M12.5,20.8c-1.8,0-6.3-6.3-6.3-10.4C6.2,7,9,4.1,12.5,4.1s6.3,2.8,6.3,6.3C18.8,14.6,14.3,20.9,12.5,20.8L12.5,20.8z M12.5,6.1
		c-2.4,0-4.3,1.9-4.3,4.3s1.9,4.3,4.3,4.3s4.3-1.9,4.3-4.3c0,0,0,0,0,0C16.8,8.1,14.9,6.1,12.5,6.1L12.5,6.1z M12.5,13.8
		c-1.8,0-3.3-1.5-3.3-3.3s1.5-3.3,3.3-3.3c1.8,0,3.3,1.5,3.3,3.3l0,0C15.8,12.3,14.3,13.8,12.5,13.8L12.5,13.8z"/>
</g>
</svg>
