<?xml version="1.0" encoding="utf-8"?>
<!-- Generator: Adobe Illustrator 25.1.0, SVG Export Plug-In . SVG Version: 6.00 Build 0)  -->
<svg version="1.1" id="Capa_1" xmlns="http://www.w3.org/2000/svg" xmlns:xlink="http://www.w3.org/1999/xlink" x="0px" y="0px"
	 viewBox="0 0 32 31.9" style="enable-background:new 0 0 32 31.9;" xml:space="preserve">
<style type="text/css">
	.st0{fill:#3FB9BE;}
</style>
<g>
	<path class="st0" d="M25.5,2h-19C5.1,2,4,3.1,4,4.5v23C4,28.9,5.1,30,6.5,30h19c1.4,0,2.5-1.1,2.5-2.5v-23C28,3.1,26.9,2,25.5,2z
		 M5,4.5C5,3.7,5.7,3,6.5,3h19C26.3,3,27,3.7,27,4.5V8H5V4.5z M27,27.5c0,0.8-0.7,1.5-1.5,1.5h-19C5.7,29,5,28.3,5,27.5V9h22V27.5z"
		/>
	<path class="st0" d="M16,24.5c3,0,5.5-2.5,5.5-5.5S19,13.5,16,13.5c-3,0-5.5,2.5-5.5,5.5S13,24.5,16,24.5z M16,23.5
		c-2.3,0-4.2-1.7-4.4-4c0.1,0.1,0.2,0.2,0.4,0.4c0.4,0.4,0.8,1,1.6,1c0.9,0,1.4-0.7,1.7-1.5c0.2-0.6,0.4-0.8,0.7-0.9
		c0.3-0.1,0.5,0.2,0.9,0.6c0.4,0.5,1,1.1,1.8,1c0.9-0.1,1.2-0.9,1.5-1.5c0.1-0.2,0.2-0.4,0.2-0.5c0.1,0.3,0.1,0.6,0.1,0.9
		C20.5,21.5,18.5,23.5,16,23.5z M16,14.5c1.8,0,3.3,1,4,2.5c-0.4,0.3-0.6,0.8-0.8,1.2c-0.2,0.6-0.4,0.8-0.7,0.9
		c-0.3,0-0.5-0.2-0.9-0.6c-0.4-0.5-1-1.1-1.8-1c-0.9,0.1-1.2,0.9-1.5,1.5c-0.2,0.6-0.4,0.8-0.7,0.9s-0.5-0.2-0.9-0.6
		c-0.3-0.3-0.6-0.7-1.1-0.9C11.9,16.2,13.7,14.5,16,14.5z"/>
	<path class="st0" d="M8.5,22.5c0.1,0,0.2,0,0.3,0c1.3,2.8,4.1,4.5,7.2,4.5c4.4,0,8-3.6,8-8s-3.6-8-8-8c-3.1,0-5.9,1.8-7.2,4.5
		c-0.1,0-0.2,0-0.3,0C7.7,15.5,7,16.2,7,17v4C7,21.8,7.7,22.5,8.5,22.5z M16,12c3.9,0,7,3.1,7,7s-3.1,7-7,7c-2.7,0-5.2-1.6-6.3-4.1
		C9.9,21.7,10,21.4,10,21v-4c0-0.4-0.1-0.7-0.3-0.9C10.8,13.6,13.3,12,16,12z M8,17c0-0.3,0.2-0.5,0.5-0.5S9,16.7,9,17v4
		c0,0.3-0.2,0.5-0.5,0.5S8,21.3,8,21V17z"/>
	<path class="st0" d="M13.5,4h-6C6.7,4,6,4.7,6,5.5S6.7,7,7.5,7h6C14.3,7,15,6.3,15,5.5S14.3,4,13.5,4z M13.5,6h-6
		C7.2,6,7,5.8,7,5.5S7.2,5,7.5,5h6C13.8,5,14,5.2,14,5.5S13.8,6,13.5,6z"/>
	<path class="st0" d="M20.5,4C19.7,4,19,4.7,19,5.5S19.7,7,20.5,7S22,6.3,22,5.5S21.3,4,20.5,4z M20.5,6C20.2,6,20,5.8,20,5.5
		S20.2,5,20.5,5S21,5.2,21,5.5S20.8,6,20.5,6z"/>
	<path class="st0" d="M24.5,4C23.7,4,23,4.7,23,5.5S23.7,7,24.5,7S26,6.3,26,5.5S25.3,4,24.5,4z M24.5,6C24.2,6,24,5.8,24,5.5
		S24.2,5,24.5,5S25,5.2,25,5.5S24.8,6,24.5,6z"/>
	<circle class="st0" cx="17.5" cy="4.5" r="0.5"/>
	<circle class="st0" cx="17.5" cy="6.5" r="0.5"/>
</g>
</svg>
