<?xml version="1.0" encoding="utf-8"?>
<!-- Generator: Adobe Illustrator 25.1.0, SVG Export Plug-In . SVG Version: 6.00 Build 0)  -->
<svg version="1.1"
	 id="Capa_1" xmlns:cc="http://creativecommons.org/ns#" xmlns:dc="http://purl.org/dc/elements/1.1/" xmlns:inkscape="http://www.inkscape.org/namespaces/inkscape" xmlns:rdf="http://www.w3.org/1999/02/22-rdf-syntax-ns#" xmlns:sodipodi="http://sodipodi.sourceforge.net/DTD/sodipodi-0.dtd" xmlns:svg="http://www.w3.org/2000/svg"
	 xmlns="http://www.w3.org/2000/svg" xmlns:xlink="http://www.w3.org/1999/xlink" x="0px" y="0px" viewBox="0 0 100 96.7"
	 style="enable-background:new 0 0 100 96.7;" xml:space="preserve">
<style type="text/css">
	.st0{fill:#3FB9BE;}
</style>
<g transform="translate(0,-952.36218)">
	<path class="st0" d="M63.3,964.4c-0.1,0-0.3,0-0.4,0.1l-30.2,8.7l-24.3-5.3c-1.1-0.2-2.1,0.4-2.4,1.5c0,0.1,0,0.3,0,0.4v50.2
		c0,0.9,0.7,1.7,1.6,1.9l26.2,5.9c0.3,0.1,0.7,0.1,1,0l20.8-6.2c1.1-0.2,1.8-1.3,1.6-2.4c-0.2-1.1-1.3-1.8-2.4-1.6
		c-0.1,0-0.2,0.1-0.3,0.1l-20.2,6.1l-24.1-5.4v-46.1l21,4.6l0.1,42c0,1.1,0.9,2,2,2c1.1,0,2-0.9,2-2c0,0,0,0,0-0.1L35,976.6
		l26.1-7.5L61,991.6c0,1.1,0.9,2,2,2c1.1,0,2-0.9,2-2c0,0,0,0,0-0.1l0.1-22.9l12.9,2.7l0,17.8c0,1.1,0.9,2,2,2c1.1,0,2-0.9,2-2
		c0,0,0,0,0-0.1l0-19.4c0-1-0.7-1.8-1.6-2l-16.6-3.3C63.7,964.4,63.5,964.3,63.3,964.4z M76,993c-11,0-18.1,8.6-18.1,18.2
		c0,5.4,3,10.9,6.4,16c3.5,5.1,7.6,9.6,10.1,12.5c0.7,0.8,2,0.9,2.8,0.1c0.1,0,0.1-0.1,0.1-0.1c2.6-2.9,6.7-7.5,10.1-12.5
		c3.5-5.1,6.4-10.6,6.4-16C94,1001.6,87,993,76,993z M76,997c9,0,14,6.5,14,14.2c0,3.8-2.5,9-5.8,13.8c-2.7,4-5.8,7.6-8.3,10.4
		c-2.5-2.8-5.5-6.4-8.3-10.4c-3.3-4.8-5.8-9.9-5.8-13.8C61.9,1003.5,67,997,76,997z M76,1000.1c-5.3,0-9.7,4.4-9.7,9.8
		s4.4,9.8,9.7,9.8s9.7-4.4,9.7-9.8S81.3,1000.1,76,1000.1z M76,1004.2c3.2,0,5.8,2.5,5.8,5.7c0,3.1-2.5,5.7-5.8,5.7
		s-5.8-2.5-5.8-5.7C70.2,1006.8,72.7,1004.2,76,1004.2z"/>
</g>
</svg>
