<?xml version="1.0" encoding="utf-8"?>
<!-- Generator: Adobe Illustrator 25.1.0, SVG Export Plug-In . SVG Version: 6.00 Build 0)  -->
<svg version="1.1"
	 id="Capa_1" xmlns:cc="http://creativecommons.org/ns#" xmlns:dc="http://purl.org/dc/elements/1.1/" xmlns:inkscape="http://www.inkscape.org/namespaces/inkscape" xmlns:rdf="http://www.w3.org/1999/02/22-rdf-syntax-ns#" xmlns:sodipodi="http://sodipodi.sourceforge.net/DTD/sodipodi-0.dtd" xmlns:svg="http://www.w3.org/2000/svg"
	 xmlns="http://www.w3.org/2000/svg" xmlns:xlink="http://www.w3.org/1999/xlink" x="0px" y="0px" viewBox="0 0 100 91.9"
	 style="enable-background:new 0 0 100 91.9;" xml:space="preserve">
<style type="text/css">
	.st0{fill:#3FB9BE;}
</style>
<g transform="translate(0,-952.36218)">
	<path class="st0" d="M13.1,969.5c-3.3,0-6.1,2.7-6.1,6v44c0,3.3,2.8,6,6.1,6h73.8c3.3,0,6.1-2.7,6.1-6v-44c0-3.3-2.8-6-6.1-6H13.1z
		 M14.1,973.5h71.8L51.8,1004c-0.9,0.8-2.6,0.8-3.5,0L14.1,973.5z M11,976l25,22.3L11,1019V976z M89,976v43l-25-20.7L89,976z
		 M39,1001.1l6.6,5.9c2.5,2.2,6.3,2.2,8.8,0l6.6-5.9l24.7,20.4H14.3L39,1001.1L39,1001.1z"/>
</g>
</svg>
