<?xml version="1.0" encoding="utf-8"?>
<!-- Generator: Adobe Illustrator 25.1.0, SVG Export Plug-In . SVG Version: 6.00 Build 0)  -->
<svg version="1.1"
	 id="Capa_1" xmlns:cc="http://creativecommons.org/ns#" xmlns:dc="http://purl.org/dc/elements/1.1/" xmlns:rdf="http://www.w3.org/1999/02/22-rdf-syntax-ns#"
	 xmlns="http://www.w3.org/2000/svg" xmlns:xlink="http://www.w3.org/1999/xlink" x="0px" y="0px" viewBox="0 0 48 36.7"
	 style="enable-background:new 0 0 48 36.7;" xml:space="preserve">
<style type="text/css">
	.st0{fill:#3FB9BE;}
</style>
<g shape-rendering="auto">
	<path image-rendering="auto" color-rendering="auto" class="st0" d="M7,17.8c-0.6,0-1,0.4-1,1s0.4,1,1,1c0,0,0,0,0,0h34
		c0.6,0,1-0.4,1-1c0-0.6-0.4-1-1-1c0,0,0,0,0,0H7z"/>
	<path image-rendering="auto" color-rendering="auto" class="st0" d="M7,7.8c-0.6,0-1,0.4-1,1c0,0.6,0.4,1,1,1c0,0,0,0,0,0h34
		c0.6,0,1-0.4,1-1c0-0.6-0.4-1-1-1c0,0,0,0,0,0H7z"/>
	<path image-rendering="auto" color-rendering="auto" class="st0" d="M7,27.8c-0.6,0-1,0.4-1,1c0,0.6,0.4,1,1,1c0,0,0,0,0,0h34
		c0.6,0,1-0.4,1-1c0-0.6-0.4-1-1-1c0,0,0,0,0,0H7z"/>
</g>
</svg>
