<?xml version="1.0" encoding="utf-8"?>
<!-- Generator: Adobe Illustrator 25.1.0, SVG Export Plug-In . SVG Version: 6.00 Build 0)  -->
<svg version="1.1" id="Capa_1" xmlns="http://www.w3.org/2000/svg" xmlns:xlink="http://www.w3.org/1999/xlink" x="0px" y="0px"
	 viewBox="0 0 22 21.3" style="enable-background:new 0 0 22 21.3;" xml:space="preserve">
<style type="text/css">
	.st0{fill:#3FB9BE;}
</style>
<g>
	<path class="st0" d="M18.8,14.1c-0.8-0.8-1.6-1.4-2.5-1.9c-0.5-0.3-1-0.3-1.5,0l-1.1,0.6c-1.2-0.3-2.2-1-3-1.9
		c-0.9-0.8-1.6-1.8-1.9-3l0.6-1.1c0.3-0.5,0.3-1,0-1.5C8.8,4.4,8.1,3.5,7.4,2.7C7,2.3,6.5,2,6,2C5.2,2,4.4,2.6,3,4.1
		C2.5,4.6,2.3,5.2,2.3,5.9c0.1,3.2,5,8,5.2,8.2s5,5.2,8.2,5.2h0.1c0.6,0,1.2-0.2,1.6-0.7c1.5-1.5,2.1-2.3,2.1-3
		C19.5,15,19.2,14.5,18.8,14.1z M16.8,17.9c-0.3,0.3-0.7,0.4-1.1,0.4c-2.3,0-6.2-3.6-7.5-5s-4.9-5.1-5-7.4c0-0.4,0.1-0.8,0.4-1.1
		C4,4.3,5.3,3,5.9,3l0,0c0.2,0,0.4,0.2,0.7,0.5c0.7,0.7,1.3,1.5,1.7,2.3c0.1,0.2,0.1,0.3,0,0.5L7.7,7.5c0,0.1-0.1,0.2-0.1,0.2
		c0,0.2,0.1,1.7,2.2,3.8s3.7,2.2,3.8,2.2c0.1,0,0.2,0,0.2-0.1l1.3-0.6c0.2-0.1,0.3-0.1,0.5,0c0.9,0.5,1.6,1.1,2.3,1.8
		c0.3,0.3,0.5,0.5,0.5,0.7C18.5,16.2,17.2,17.5,16.8,17.9L16.8,17.9z"/>
</g>
</svg>
