<?xml version="1.0" encoding="utf-8"?>
<!-- Generator: Adobe Illustrator 25.1.0, SVG Export Plug-In . SVG Version: 6.00 Build 0)  -->
<svg version="1.1" id="Capa_1" xmlns="http://www.w3.org/2000/svg" xmlns:xlink="http://www.w3.org/1999/xlink" x="0px" y="0px"
	 viewBox="0 0 71 74.8" style="enable-background:new 0 0 71 74.8;" xml:space="preserve">
<style type="text/css">
	.st0{fill:#3FB9BE;}
</style>
<path class="st0" d="M65.2,59c-0.2-0.2-0.3-0.3-0.5-0.5l-12.5-11c7-10.4,5.9-24.8-3.3-34c-5.1-5.1-11.8-7.9-19-7.9s-13.9,2.8-19,7.9
	c-5.1,5.1-7.9,11.8-7.9,19s2.8,13.9,7.9,19c5.1,5.1,11.8,7.9,19,7.9c5.8,0,11.3-1.8,15.8-5.2c0.4-0.2,0.7-0.4,1-0.7l2.2-2
	c0,0,0,0,0,0s0,0,0,0l0.9-0.9l12.4,10.9c0,0,0.1,0.1,0.1,0.1c0.1,0.1,0.1,0.1,0.2,0.2c0.4,0.4,0.7,1,0.7,1.6s-0.2,1.2-0.7,1.6
	c-0.9,0.9-2.4,0.9-3.2,0c-0.1-0.1-0.1-0.1-0.2-0.2c0,0,0-0.1-0.1-0.1l-8.4-9.5c-0.7-0.8-2-0.9-2.8-0.2c-0.8,0.7-0.9,2-0.2,2.8
	l8.4,9.5c0.1,0.2,0.3,0.4,0.5,0.5c1.2,1.2,2.8,1.8,4.4,1.8s3.2-0.6,4.4-1.8C67.7,65.4,67.7,61.4,65.2,59z M13.7,48.7
	C9.4,44.4,7,38.6,7,32.5s2.4-11.9,6.7-16.2s10.1-6.7,16.2-6.7s11.9,2.4,16.2,6.7c8.9,8.9,8.9,23.5,0,32.4l0,0
	C41.8,53,36,55.4,29.9,55.4C23.8,55.4,18.1,53,13.7,48.7z"/>
</svg>
