<?xml version="1.0" encoding="utf-8"?>
<!-- Generator: Adobe Illustrator 25.1.0, SVG Export Plug-In . SVG Version: 6.00 Build 0)  -->
<svg version="1.1"
	 id="Capa_1" xmlns:cc="http://creativecommons.org/ns#" xmlns:dc="http://purl.org/dc/elements/1.1/" xmlns:inkscape="http://www.inkscape.org/namespaces/inkscape" xmlns:rdf="http://www.w3.org/1999/02/22-rdf-syntax-ns#" xmlns:sodipodi="http://sodipodi.sourceforge.net/DTD/sodipodi-0.dtd" xmlns:svg="http://www.w3.org/2000/svg"
	 xmlns="http://www.w3.org/2000/svg" xmlns:xlink="http://www.w3.org/1999/xlink" x="0px" y="0px" viewBox="0 0 26.5 26.3"
	 style="enable-background:new 0 0 26.5 26.3;" xml:space="preserve">
<style type="text/css">
	.st0{fill:#3FB9BE;}
</style>
<g transform="translate(0,-270.54165)">
	<path class="st0" d="M2.6,272.7c-1,0-1.9,0.8-1.9,1.9v2.4c0,0.3,0.2,0.5,0.5,0.5s0.5-0.2,0.5-0.5v-2.4c0-0.4,0.3-0.8,0.8-0.8h21.2
		c0.4,0,0.8,0.3,0.8,0.8v14H1.9v-8.5c0-0.3-0.2-0.5-0.5-0.5s-0.5,0.2-0.5,0.5l0,0v13c0,1,0.8,1.9,1.9,1.9h21.2c1,0,1.9-0.8,1.9-1.9
		v-18.5c0-1-0.8-1.9-1.9-1.9H2.6z M1.9,289.6h22.8v3.4c0,0.4-0.3,0.8-0.8,0.8H2.6c-0.4,0-0.8-0.3-0.8-0.8V289.6z"/>
	<path class="st0" d="M9.3,290.1c-0.7,0-1.3,0.4-1.5,1.1H5.3c-0.3,0-0.5,0.2-0.5,0.5s0.2,0.5,0.5,0.5h2.5c0.2,0.6,0.8,1.1,1.5,1.1
		c0.7,0,1.3-0.4,1.5-1.1h10.4c0.3,0,0.5-0.2,0.5-0.5s-0.2-0.5-0.5-0.5H10.8C10.5,290.6,9.9,290.1,9.3,290.1z M9.3,291.2
		c0.3,0,0.5,0.2,0.5,0.5c0,0.3-0.2,0.5-0.5,0.5s-0.5-0.2-0.5-0.5C8.7,291.4,9,291.2,9.3,291.2z"/>
	<path class="st0" d="M10.1,277.2v7.9c0,0.4,0.4,0.7,0.8,0.5l6.6-4c0.3-0.2,0.3-0.7,0-0.9l-6.6-4C10.5,276.5,10.1,276.7,10.1,277.2z
		 M11.1,278.1l5.1,3l-5.1,3V278.1z"/>
	<path class="st0" d="M1.9,278.5c0,0.3-0.2,0.5-0.5,0.5c0,0,0,0,0,0c-0.3,0-0.5-0.2-0.5-0.5l0,0c0-0.3,0.2-0.5,0.5-0.5c0,0,0,0,0,0
		C1.6,277.9,1.9,278.2,1.9,278.5L1.9,278.5z"/>
</g>
</svg>
