<?xml version="1.0" encoding="utf-8"?>
<!-- Generator: Adobe Illustrator 25.1.0, SVG Export Plug-In . SVG Version: 6.00 Build 0)  -->
<svg version="1.1" id="Capa_1" xmlns="http://www.w3.org/2000/svg" xmlns:xlink="http://www.w3.org/1999/xlink" x="0px" y="0px"
	 viewBox="0 0 24 24.2" style="enable-background:new 0 0 24 24.2;" xml:space="preserve">
<style type="text/css">
	.st0{fill:#3FB9BE;}
</style>
<g>
	<path class="st0" d="M22.3,14.2H4.5V6.3C5,6.2,5.4,5.7,5.4,5.1c0-0.7-0.6-1.3-1.3-1.3S2.7,4.4,2.7,5.1c0,0.6,0.4,1.1,0.9,1.2v7.8
		H1.7c-0.8,0-1.4,0.6-1.4,1.4v4.3c0,0.8,0.6,1.4,1.4,1.4h1.7v2.2c0,0.2,0.2,0.4,0.4,0.4h1.7c0.1,0,0.2-0.1,0.3-0.1l2-2.4h8.4l2,2.4
		c0.1,0.1,0.2,0.1,0.3,0.1h1.7c0.2,0,0.4-0.2,0.4-0.4v-2.2h1.7c0.8,0,1.4-0.6,1.4-1.4v-4.3C23.7,14.8,23.1,14.2,22.3,14.2z M4.1,4.6
		c0.3,0,0.5,0.2,0.5,0.5S4.3,5.6,4.1,5.6S3.5,5.4,3.5,5.1S3.8,4.6,4.1,4.6z M5.3,23H4.2v-1.8h2.6L5.3,23z M19.8,23h-1.1l-1.5-1.8
		h2.6C19.8,21.3,19.8,23,19.8,23z M22.9,19.9c0,0.3-0.3,0.6-0.6,0.6H1.7c-0.3,0-0.6-0.3-0.6-0.6v-4.3c0-0.3,0.3-0.6,0.6-0.6h20.6
		c0.3,0,0.6,0.3,0.6,0.6V19.9z"/>
	<path class="st0" d="M20.2,16.3c-0.8,0-1.4,0.6-1.4,1.4s0.6,1.4,1.4,1.4s1.4-0.6,1.4-1.4S21,16.3,20.2,16.3z M20.2,18.3
		c-0.3,0-0.6-0.3-0.6-0.6s0.3-0.6,0.6-0.6s0.6,0.3,0.6,0.6S20.6,18.3,20.2,18.3z"/>
	<path class="st0" d="M16.4,16.3c-0.8,0-1.4,0.6-1.4,1.4s0.6,1.4,1.4,1.4c0.8,0,1.4-0.6,1.4-1.4S17.1,16.3,16.4,16.3z M16.4,18.3
		c-0.3,0-0.6-0.3-0.6-0.6s0.3-0.6,0.6-0.6s0.6,0.3,0.6,0.6S16.7,18.3,16.4,18.3z"/>
	<path class="st0" d="M6.4,5.1c0,0.4-0.1,0.8-0.4,1.1C5.9,6.4,5.9,6.7,6.1,6.8c0.1,0.1,0.2,0.1,0.2,0.1c0.1,0,0.2-0.1,0.3-0.2
		c0.4-0.5,0.5-1,0.5-1.6c0-0.6-0.2-1.2-0.6-1.7C6.4,3.3,6.2,3.3,6,3.4S5.8,3.8,5.9,4C6.2,4.3,6.4,4.7,6.4,5.1z"/>
	<path class="st0" d="M8,5.2C8,6,7.7,6.7,7.2,7.3C7.1,7.5,7.1,7.7,7.3,7.9c0.1,0.1,0.2,0.1,0.2,0.1c0.1,0,0.2-0.1,0.3-0.2
		C8.4,7,8.8,6.1,8.8,5.2c0-1-0.4-2-1-2.8c-0.1-0.2-0.4-0.2-0.6,0C7,2.5,7,2.8,7.1,2.9C7.7,3.6,8,4.4,8,5.2z"/>
	<path class="st0" d="M9.9,5.2c0,1.1-0.4,2.1-1,3C8.7,8.4,8.7,8.6,8.9,8.8C9,8.8,9.1,8.9,9.2,8.9c0.1,0,0.2-0.1,0.3-0.2
		c0.8-1,1.2-2.2,1.2-3.5c0-1.4-0.5-2.7-1.4-3.7c-0.1-0.2-0.4-0.2-0.6,0C8.6,1.6,8.6,1.9,8.7,2C9.4,2.9,9.9,4,9.9,5.2z"/>
	<path class="st0" d="M11.8,5.2c0,1.5-0.5,3-1.4,4.2c-0.1,0.2-0.1,0.4,0.1,0.6c0.1,0.1,0.2,0.1,0.2,0.1C10.8,10,11,10,11,9.9
		c1-1.3,1.6-2.9,1.6-4.6c0-1.8-0.6-3.5-1.8-4.9c-0.1-0.2-0.4-0.2-0.6,0s-0.2,0.4,0,0.6C11.2,2.1,11.8,3.6,11.8,5.2z"/>
</g>
</svg>
