<?xml version="1.0" encoding="utf-8"?>
<!-- Generator: Adobe Illustrator 25.1.0, SVG Export Plug-In . SVG Version: 6.00 Build 0)  -->
<svg version="1.1" id="Capa_1" xmlns="http://www.w3.org/2000/svg" xmlns:xlink="http://www.w3.org/1999/xlink" x="0px" y="0px"
	 viewBox="0 0 48 48.5" style="enable-background:new 0 0 48 48.5;" xml:space="preserve">
<style type="text/css">
	.st0{fill:#3FB9BE;}
</style>
<g>
	<path class="st0" d="M12.5,7C8.4,7,5,10.4,5,14.5S8.4,22,12.5,22s7.5-3.4,7.5-7.5S16.6,7,12.5,7z M12.5,20c-3,0-5.5-2.5-5.5-5.5
		S9.5,9,12.5,9s5.5,2.5,5.5,5.5C18,17.5,15.5,20,12.5,20z"/>
	<path class="st0" d="M12.5,10c-4.3,0-5.6,5.5-3.5,5.5c0.6,0,1-0.4,1-1c0-1.4,1.1-2.5,2.5-2.5c0.6,0,1-0.4,1-1S13.1,10,12.5,10z"/>
	<path class="st0" d="M35.5,7c-4.1,0-7.5,3.4-7.5,7.5s3.4,7.5,7.5,7.5s7.5-3.4,7.5-7.5S39.6,7,35.5,7z M35.5,20
		c-3,0-5.5-2.5-5.5-5.5S32.5,9,35.5,9s5.5,2.5,5.5,5.5C41,17.5,38.5,20,35.5,20z"/>
	<path class="st0" d="M35.5,10c-4.3,0-5.6,5.5-3.5,5.5c0.6,0,1-0.4,1-1c0-1.4,1.1-2.5,2.5-2.5c0.6,0,1-0.4,1-1S36.1,10,35.5,10z"/>
	<path class="st0" d="M12.5,30C8.4,30,5,33.4,5,37.5S8.4,45,12.5,45s7.5-3.4,7.5-7.5S16.6,30,12.5,30L12.5,30z M12.5,43
		c-3,0-5.5-2.5-5.5-5.5S9.5,32,12.5,32s5.5,2.5,5.5,5.5C18,40.5,15.5,43,12.5,43z"/>
	<path class="st0" d="M47,0H1C0.4,0,0,0.4,0,1v46c0,0.6,0.4,1,1,1h46c0.6,0,1-0.4,1-1V1C48,0.4,47.6,0,47,0z M46,27H25v-2h21V27z
		 M2,6h21v17H2V6z M25,6h21v17H25V6z M2,25h21v2H2V25z M46,4H25V2h21V4z M2,2h21v2H2V2z M2,29h21v17H2V29z M25,46V29h21v17H25z"/>
	<path class="st0" d="M11.7,36.7c0.4-0.4,0.4-1,0-1.4c-0.4-0.4-1-0.4-1.4,0c-0.9,0.9-1,2.4-0.1,3.3c0,0,0.1,0.1,0.1,0.1
		c0.1,0.1,0.3,0.3,0,0.6c-0.4,0.4-0.4,1,0,1.4c0.2,0.2,0.4,0.3,0.7,0.3c1.1,0,2.2-2.2,0.7-3.7C11.6,37.2,11.4,37,11.7,36.7z"/>
	<path class="st0" d="M14.7,34.7c0.4-0.4,0.4-1,0-1.4c-0.4-0.4-1-0.4-1.4,0c-0.9,0.9-1,2.4-0.1,3.3c0,0,0.1,0.1,0.1,0.1
		c0.1,0.1,0.3,0.3,0,0.6c-0.4,0.4-0.4,1,0,1.4c0.2,0.2,0.4,0.3,0.7,0.3c1.1,0,2.2-2.2,0.7-3.7C14.6,35.2,14.4,35,14.7,34.7z"/>
	<path class="st0" d="M35.5,30c-4.1,0-7.5,3.4-7.5,7.5s3.4,7.5,7.5,7.5s7.5-3.4,7.5-7.5S39.6,30,35.5,30L35.5,30z M35.5,43
		c-3,0-5.5-2.5-5.5-5.5s2.5-5.5,5.5-5.5s5.5,2.5,5.5,5.5C41,40.5,38.5,43,35.5,43z"/>
	<path class="st0" d="M34.7,36.7c0.4-0.4,0.4-1,0-1.4c-0.4-0.4-1-0.4-1.4,0l0,0c-0.9,0.9-1,2.4-0.1,3.3c0,0,0.1,0.1,0.1,0.1
		c0.1,0.1,0.3,0.3,0,0.6c-0.4,0.4-0.4,1,0,1.4c0.2,0.2,0.4,0.3,0.7,0.3c1.1,0,2.2-2.2,0.7-3.7C34.6,37.2,34.4,37,34.7,36.7z"/>
	<path class="st0" d="M37.7,34.7c0.4-0.4,0.4-1,0-1.4c-0.4-0.4-1-0.4-1.4,0c-0.9,0.9-1,2.4-0.1,3.3c0,0,0.1,0.1,0.1,0.1
		c0.1,0.1,0.3,0.3,0,0.6c-0.4,0.4-0.4,1,0,1.4c0.2,0.2,0.4,0.3,0.7,0.3c1.1,0,2.2-2.2,0.7-3.7C37.6,35.2,37.4,35,37.7,34.7z"/>
</g>
</svg>
